<?xml version="1.0" encoding="UTF-8"?>
<!-- Generator: Adobe Illustrator 24.0.3, SVG Export Plug-In . SVG Version: 6.00 Build 0)  -->
<svg version="1.1" id="Layer_1" xmlns="http://www.w3.org/2000/svg" xmlns:xlink="http://www.w3.org/1999/xlink" x="0px" y="0px" viewBox="0 0 255.7 110.3" style="enable-background:new 0 0 255.7 110.3;" xml:space="preserve">
<style type="text/css">
	.st0{fill:#662D91;}
	.st1{fill:none;stroke:#662D91;stroke-width:0.5884;stroke-miterlimit:10;}
	.st2{fill:#8BC540;}
	.st3{fill:#333333;}
	.st4{fill:#FFFFFF;}
</style>
<g>
	<circle class="st0" cx="28.2" cy="33.5" r="6.4"/>
	<path class="st0" d="M63.3,17.8c3.4,0,6.1-2.4,6.1-5.3H57.1C57.1,15.4,59.9,17.8,63.3,17.8z"/>
	<path class="st0" d="M51.6,5.6c-1.5,0-2.8-1.2-2.8-2.8S50.1,0,51.6,0s2.8,1.2,2.8,2.8S53.2,5.6,51.6,5.6z M51.6,1.6   c-0.6,0-1.1,0.5-1.1,1.1s0.5,1.1,1.1,1.1s1.1-0.5,1.1-1.1S52.3,1.6,51.6,1.6z"/>
	<path class="st0" d="M39.8,8.9l-0.7-1.5c8.3-3.7,16.8-3.7,25,0l-0.7,1.5C55.7,5.3,47.7,5.3,39.8,8.9z"/>
	<path class="st0" d="M40,17.8c3.4,0,6.1-2.4,6.1-5.3H33.8C33.8,15.4,36.6,17.8,40,17.8z"/>
	<path class="st0" d="M51.3,13.3c0.4,1.6,0.6,3.2,0.6,4.9c0,5.9-2.4,11.4-6.5,15.6c-4.2,4.3-10,7.1-16.5,7.8l0,0   c-3.4,0.3-6.6,1-9.4,2C8.6,46.8,0.5,57.8,0,71.1C-0.2,78.5,2,85.4,5.8,90.8c-0.4-1.6-0.6-3.2-0.6-5c0-0.4,0-0.8,0.1-1.1   c-0.7-1.7-1-3.6-1-5.5c0.1-3.8,1.7-7.3,4.4-9.9c1.5-1.5,3.3-2.5,5.3-3.2c-2-1.2-3.3-3.4-3.3-5.9c0-1.8,0.8-3.4,2.1-4.6   c1.3-1.2,3-1.8,4.7-1.8c3.7,0.1,6.6,3.2,6.5,6.8c0,1.1-0.4,2.2-0.9,3.1c1.7-0.5,3.4-0.8,5.1-1v0c3.4-0.3,6.6-1,9.5-2.1   c10.8-3.4,19-14.4,19.4-27.7C57.4,25.5,55.1,18.6,51.3,13.3z"/>
	<path class="st0" d="M52.6,74.4c0,0,0.1,0,0.1-0.1c0-0.1-0.1-0.1-0.1-0.2C52.6,74.2,52.6,74.3,52.6,74.4z"/>
	<path class="st2" d="M18.9,67.1c-0.1,0-0.2,0-0.3,0c-1.2,0-2.5,0.2-3.6,0.5c-1.8,0.6-3.5,1.5-4.9,2.9c-2.4,2.3-3.8,5.4-3.9,8.7   c0,0.2,0,0.4,0,0.6c0.2,6.6,5.5,12,12.1,12.2c6.9,0.2,12.6-5.3,12.8-12.1C31.2,73.1,25.7,67.3,18.9,67.1z"/>
	<path class="st2" d="M20.7,63.9c0.9-0.9,1.5-2.1,1.5-3.4c0.1-2.7-2.1-4.9-4.7-5c0,0-0.1,0-0.1,0c-2.6,0-4.8,2.1-4.9,4.8   c-0.1,2.7,2.1,4.9,4.7,5C18.6,65.3,19.8,64.8,20.7,63.9z"/>
	<g>
		<path class="st3" d="M39.7,109.7V68.8h8v19.4l17.2-19.5h8.8L57.9,86.9l16.7,22.8h-8.9L52.9,92l-5.2,5.5v12.2H39.7z"/>
		<path class="st3" d="M78.7,75.3v-7.7h7.7v7.7H78.7z M78.7,109.7V79.5h7.7v30.2H78.7z"/>
		<path class="st3" d="M107.1,110.3c-2.1,0-4-0.4-5.8-1.2c-1.8-0.8-3.3-1.9-4.6-3.3c-1.3-1.4-2.3-3.1-3-5c-0.7-1.9-1.1-3.9-1.1-6.1    c0-2.2,0.3-4.2,1-6.1c0.7-1.9,1.6-3.5,2.8-5c1.2-1.4,2.6-2.5,4.3-3.3c1.7-0.8,3.5-1.2,5.4-1.2c2.2,0,4.2,0.5,6,1.6    c1.8,1.1,3.2,2.5,4.2,4.2V67.6h7.7v33.2c0,0.8,0.1,1.4,0.4,1.7c0.3,0.3,0.7,0.5,1.4,0.6v6.6c-1.3,0.3-2.4,0.4-3.3,0.4    c-1.4,0-2.5-0.3-3.4-1c-0.9-0.7-1.4-1.6-1.5-2.7l-0.2-1.9c-1.1,1.9-2.6,3.4-4.5,4.4C111.1,109.8,109.1,110.3,107.1,110.3z     M109.1,103.7c0.7,0,1.5-0.1,2.2-0.4c0.8-0.2,1.5-0.6,2.1-1.1c0.7-0.5,1.2-1,1.8-1.6c0.5-0.6,0.9-1.3,1.2-2v-7.2    c-0.3-0.8-0.7-1.6-1.3-2.3c-0.6-0.7-1.2-1.3-1.9-1.8c-0.7-0.5-1.5-0.9-2.2-1.2c-0.8-0.3-1.6-0.5-2.3-0.5c-1.2,0-2.2,0.3-3.2,0.7    s-1.8,1.2-2.5,2c-0.7,0.9-1.2,1.9-1.6,3c-0.4,1.1-0.6,2.3-0.6,3.5c0,1.3,0.2,2.4,0.6,3.5c0.4,1.1,1,2,1.7,2.8    c0.7,0.8,1.6,1.4,2.6,1.9C106.7,103.5,107.8,103.7,109.1,103.7z"/>
		<path class="st3" d="M160.3,79.5c-0.3-0.3-0.8-0.6-1.5-1.1c-0.7-0.5-1.6-0.9-2.6-1.4c-1-0.4-2.1-0.8-3.3-1.1    c-1.2-0.3-2.4-0.5-3.6-0.5c-2.2,0-3.8,0.4-4.9,1.2c-1.1,0.8-1.6,1.9-1.6,3.4c0,0.8,0.2,1.5,0.6,2.1c0.4,0.6,1,1,1.8,1.5    c0.8,0.4,1.7,0.8,2.9,1.2c1.2,0.3,2.5,0.7,4.1,1.1c2,0.5,3.8,1.1,5.4,1.7c1.6,0.6,3,1.4,4.2,2.3c1.1,0.9,2,2,2.6,3.3    c0.6,1.3,0.9,2.9,0.9,4.8c0,2.2-0.4,4.1-1.2,5.6c-0.8,1.6-1.9,2.8-3.3,3.8c-1.4,1-3,1.7-4.8,2.1c-1.8,0.4-3.7,0.7-5.7,0.7    c-3.1,0-6.1-0.5-9.1-1.4c-3-0.9-5.7-2.2-8.1-3.9l3.5-6.9c0.3,0.3,1,0.8,1.9,1.4c0.9,0.6,2,1.1,3.2,1.7c1.2,0.6,2.6,1,4.1,1.4    c1.5,0.4,3,0.6,4.6,0.6c4.4,0,6.6-1.4,6.6-4.2c0-0.9-0.3-1.6-0.7-2.2c-0.5-0.6-1.2-1.2-2.1-1.6c-0.9-0.5-2-0.9-3.3-1.3    c-1.3-0.4-2.8-0.8-4.4-1.3c-2-0.5-3.7-1.1-5.1-1.8s-2.6-1.4-3.6-2.2c-1-0.9-1.7-1.9-2.2-3c-0.5-1.1-0.7-2.5-0.7-4.1    c0-2.1,0.4-3.9,1.2-5.5c0.8-1.6,1.8-3,3.2-4c1.4-1.1,2.9-1.9,4.8-2.4c1.8-0.6,3.7-0.8,5.8-0.8c2.9,0,5.5,0.5,8,1.4    c2.4,0.9,4.5,2,6.3,3.2L160.3,79.5z"/>
		<path class="st3" d="M171.7,75.3v-7.7h7.7v7.7H171.7z M171.7,109.7V79.5h7.7v30.2H171.7z"/>
		<path class="st3" d="M200.1,110.3c-2.1,0-4-0.4-5.8-1.2c-1.8-0.8-3.3-1.9-4.6-3.3c-1.3-1.4-2.3-3.1-3-5c-0.7-1.9-1.1-3.9-1.1-6.1    c0-2.2,0.3-4.2,1-6.1c0.7-1.9,1.6-3.5,2.8-5c1.2-1.4,2.6-2.5,4.3-3.3c1.7-0.8,3.5-1.2,5.4-1.2c2.2,0,4.2,0.5,6,1.6    c1.8,1.1,3.2,2.5,4.2,4.2V67.6h7.7v33.2c0,0.8,0.1,1.4,0.4,1.7c0.3,0.3,0.7,0.5,1.4,0.6v6.6c-1.3,0.3-2.4,0.4-3.3,0.4    c-1.4,0-2.5-0.3-3.4-1c-0.9-0.7-1.4-1.6-1.5-2.7l-0.2-1.9c-1.1,1.9-2.6,3.4-4.5,4.4C204.1,109.8,202.1,110.3,200.1,110.3z     M202.1,103.7c0.7,0,1.5-0.1,2.2-0.4c0.8-0.2,1.5-0.6,2.1-1.1c0.7-0.5,1.2-1,1.8-1.6c0.5-0.6,0.9-1.3,1.2-2v-7.2    c-0.3-0.8-0.7-1.6-1.3-2.3c-0.6-0.7-1.2-1.3-1.9-1.8c-0.7-0.5-1.5-0.9-2.2-1.2c-0.8-0.3-1.6-0.5-2.3-0.5c-1.2,0-2.2,0.3-3.2,0.7    s-1.8,1.2-2.5,2c-0.7,0.9-1.2,1.9-1.6,3c-0.4,1.1-0.6,2.3-0.6,3.5c0,1.3,0.2,2.4,0.6,3.5c0.4,1.1,1,2,1.7,2.8    c0.7,0.8,1.6,1.4,2.6,1.9C199.7,103.5,200.8,103.7,202.1,103.7z"/>
		<path class="st3" d="M239.9,110.3c-2.4,0-4.6-0.4-6.6-1.2c-2-0.8-3.6-1.9-5-3.4c-1.4-1.4-2.5-3.1-3.2-5c-0.7-1.9-1.1-3.9-1.1-5.9    c0-2.2,0.4-4.2,1.1-6.1c0.7-1.9,1.8-3.6,3.2-5c1.4-1.4,3.1-2.6,5-3.4c2-0.8,4.2-1.3,6.7-1.3c2.5,0,4.7,0.4,6.6,1.3    c1.9,0.8,3.6,2,5,3.4c1.4,1.4,2.4,3.1,3.1,5c0.7,1.9,1.1,3.8,1.1,5.9c0,0.5,0,1,0,1.4c0,0.5-0.1,0.8-0.1,1.2h-23.4    c0.1,1.2,0.4,2.2,0.9,3.2c0.5,0.9,1.1,1.7,1.8,2.4c0.7,0.7,1.6,1.2,2.5,1.5c0.9,0.3,1.9,0.5,2.9,0.5c1.5,0,3-0.4,4.4-1.1    c1.4-0.7,2.3-1.7,2.8-3l6.6,1.8c-1.1,2.3-2.9,4.2-5.3,5.7C246.2,109.5,243.3,110.3,239.9,110.3z M247.7,92c-0.2-2.3-1-4.1-2.5-5.4    c-1.5-1.4-3.3-2-5.4-2c-1,0-2,0.2-2.9,0.5c-0.9,0.4-1.7,0.9-2.4,1.5c-0.7,0.7-1.3,1.4-1.7,2.4c-0.4,0.9-0.7,1.9-0.8,3.1H247.7z"/>
	</g>
</g>
</svg>